<?xml version="1.0" encoding="utf-8"?>
<!-- Generator: Adobe Illustrator 15.0.0, SVG Export Plug-In . SVG Version: 6.00 Build 0)  -->
<!DOCTYPE svg PUBLIC "-//W3C//DTD SVG 1.1//EN" "http://www.w3.org/Graphics/SVG/1.1/DTD/svg11.dtd">
<svg version="1.1" id="Layer_1" xmlns="http://www.w3.org/2000/svg" xmlns:xlink="http://www.w3.org/1999/xlink" x="0px" y="0px"
	 width="100px" height="100px" viewBox="0 0 100 100" enable-background="new 0 0 100 100" xml:space="preserve">
<g>
	<g>
		<g>
			<g>
				<path d="M46.652,1.383c0.385-0.025,0.671-0.354,0.646-0.738c-0.027-0.38-0.36-0.67-0.736-0.644l0,0
					C20.555,1.774,0.008,23.482,0,50.002C0.008,76.52,20.555,98.23,46.562,99.999c0.376,0.025,0.709-0.264,0.736-0.644
					c0.025-0.382-0.261-0.712-0.646-0.737C21.365,96.899,1.381,75.786,1.381,50.002C1.381,24.214,21.365,3.105,46.652,1.383z">
					
					<animateTransform
						attributeName="transform"
						attributeType="XML"
						type="rotate"
						from="0 50 50"
						to="360 50 50"
						dur="5s"
						repeatCount="indefinite"
					></animateTransform>
					
				</path>
				<path d="M53.443,0.001c-0.385-0.026-0.709,0.264-0.739,0.644c-0.024,0.383,0.263,0.712,0.645,0.738l0,0
					c25.283,1.722,45.269,22.831,45.269,48.619c0,25.784-19.985,46.897-45.269,48.615c-0.382,0.025-0.669,0.355-0.645,0.737
					c0.03,0.38,0.354,0.669,0.739,0.644C79.451,98.23,99.997,76.52,100,50.002C99.997,23.482,79.451,1.774,53.443,0.001z">
					
					<animateTransform
						attributeName="transform"
						attributeType="XML"
						type="rotate"
						from="0 50 50"
						to="360 50 50"
						dur="5s"
						repeatCount="indefinite"
					></animateTransform>
					
				</path>
			</g>
		</g>
	</g>
	<g>
		<g>
			<path d="M48.371,29.347L48.371,29.347c2.812-2.388,6.666-3.861,11.102-3.861c0.449,0,0.899,0.015,1.357,0.045
				c4.02,0.264,7.424,1.678,9.811,3.758c2.385,2.087,3.752,4.816,3.754,7.805c0,0.64-0.064,1.294-0.192,1.962
				c-0.465,2.311-1.688,4.44-3.474,6.237c-1.629,1.644-3.725,2.996-6.092,3.938c-0.976-0.96-2.387-1.524-4.052-1.521
				c-1.031,0.003-1.886,0.166-2.555,0.493c-0.327,0.167-0.619,0.379-0.836,0.658c-0.221,0.276-0.362,0.637-0.354,1.005
				c-0.008,0.284,0.093,0.575,0.255,0.806c0.252,0.349,0.618,0.565,1.039,0.706c1.242,0.415,4.109,0.212,6.402-0.622
				c2.778-1.007,5.257-2.546,7.174-4.481c1.946-1.96,3.327-4.33,3.85-6.948c0.148-0.755,0.221-1.5,0.221-2.234
				c0-1.85-0.473-3.604-1.315-5.195l6.693-5.471c0.295-0.245,0.339-0.68,0.098-0.978c-0.243-0.298-0.683-0.34-0.978-0.098
				l-6.544,5.349c-0.613-0.89-1.336-1.72-2.184-2.46c-2.65-2.306-6.341-3.814-10.628-4.097c-0.49-0.031-0.973-0.047-1.45-0.047
				c-4.744,0-8.925,1.58-11.996,4.189c-0.294,0.249-0.333,0.687-0.086,0.98C47.639,29.56,48.079,29.595,48.371,29.347z
				 M58.297,50.019c-0.204-0.121-0.149-0.225-0.096-0.308c0.083-0.128,0.32-0.332,0.728-0.478c0.408-0.152,0.968-0.251,1.654-0.249
				c1.042,0.002,1.918,0.294,2.58,0.765c-0.893,0.277-1.972,0.525-3.567,0.525C58.945,50.274,58.503,50.148,58.297,50.019z"/>
			<path d="M61.738,65.459c2.835-3.08,4.64-6.898,4.645-10.667c0-0.803-0.083-1.604-0.258-2.387
				c-0.083-0.377-0.453-0.613-0.826-0.53c-0.369,0.086-0.611,0.456-0.528,0.83c0.157,0.682,0.228,1.382,0.228,2.087
				c0.004,3.313-1.631,6.847-4.283,9.724c-2.648,2.874-6.306,5.067-10.253,5.771c-0.667,0.12-1.265,0.172-1.804,0.172
				c-1.335,0-2.275-0.327-2.84-0.749c-0.574-0.423-0.793-0.912-0.793-1.38c0-0.284,0.082-0.569,0.27-0.849
				c0.213-0.32,0.123-0.753-0.195-0.966c-0.316-0.215-0.743-0.129-0.958,0.19c-0.33,0.493-0.505,1.056-0.505,1.625
				c-0.005,0.948,0.492,1.87,1.361,2.501c0.871,0.641,2.099,1.017,3.66,1.017c0.627,0,1.307-0.062,2.045-0.195
				C54.996,70.888,58.895,68.535,61.738,65.459z"/>
			<path d="M17.438,71.698c0.684,0.08,1.36,0.122,2.019,0.122c2.892,0.001,5.539-0.779,8.309-2.249
				c2.773-1.473,5.684-3.626,9.193-6.423l0.014-0.012L72.01,33.905c0.294-0.245,0.335-0.685,0.092-0.979
				c-0.247-0.296-0.686-0.335-0.981-0.09L36.082,62.065c-3.479,2.779-6.34,4.884-8.969,6.277c-2.63,1.396-5.017,2.085-7.657,2.085
				c-0.603,0-1.223-0.035-1.86-0.109c-0.382-0.046-0.727,0.229-0.767,0.609C16.78,71.308,17.056,71.653,17.438,71.698z"/>
		</g>
	</g>
</g>
</svg>
